{"title":"Terminator.4.Salvation.2009.DVDRiP.XviD.OPTIONAL-MULTI_SUB-Zen_","uid":5916478,"size":1499116223,"categoryP":"video","categoryS":"movies","magnet":"?xt=urn:btih:64a546f0882f9ad58228e35d363252ee92a07072&amp;dn=+Terminator.4.Salvation.2009.DVDRiP.XviD.OPTIONAL-MULTI_SUB-Zen_&amp;tr=udp%3A%2F%2Ftracker.openbittorrent.com%3A80&amp;tr=udp%3A%2F%2Fopen.demonii.com%3A1337&amp;tr=udp%3A%2F%2Ftracker.coppersurfer.tk%3A6969&amp;tr=udp%3A%2F%2Fexodus.desync.com%3A6969","seeders":0,"leechers":1,"uploader":"Zen_Bud","files":-1,"time":1288251194,"description":"***** Terminator.4.Salvation.2009.DVDRiP.XviD.OPTIONAL-MULTI_SUB-Zen_Bud *****\n\nFormat                           : AVI\nFile size                        : 1.37 GiB\nDuration                         : 1h 50mn\nOverall bit rate                 : 1 782 Kbps\n\nVideo\n\nCodec ID/Hint                    : XviD\nDuration                         : 1h 50mn\nBit rate                         : 1 641 Kbps\nWidth                            : 720 pixels\nHeight                           : 428 pixels\nDisplay aspect ratio             : 2.35:1\nStream size                      : 1.26 GiB (92%)\nWriting library                  : XviD 1.1.2 (UTC 2006-11-01)\n\nAudio\n\nFormat                           : MPEG Audio\nCodec ID/Hint                    : MP3\nDuration                         : 1h 50mn\nBit rate                         : 128 Kbps\nChannel(s)                       : 2 channels\nSampling rate                    : 48.0 KHz\nStream size                      : 101 MiB (7%)\nWriting library                  : LAME3.98\nLanguage                         : English\n\nText #1\nLanguage                         : English\n\nText #2\nLanguage                         : French\n\nText #3\nLanguage                         : Dutch\n\nText #4\nLanguage                         : Arabic\n\nText #5\nLanguage                         : Danish\n\nText #6\nLanguage                         : Finnish\n\nText #7\nLanguage                         : Norwegian\n\nText #8\nLanguage                         : Swedish\n\n\n\nAfter Skynet has destroyed much of humanity in a nuclear holocaust, a group of survivors led by John Connor struggles to keep the machines from finishing the job.\n\n\n &lt;a href=&quot;\nhttp://en.wikipedia.org/wiki/Terminator_Salvation&quot; rel=&quot;nofollow&quot; target=&quot;_NEW&quot;&gt;\nhttp://en.wikipedia.org/wiki/Terminator_Salvation&lt;/a&gt;","torrent":{"xt":"urn:btih:64a546f0882f9ad58228e35d363252ee92a07072","amp;dn":"+Terminator.4.Salvation.2009.DVDRiP.XviD.OPTIONAL-MULTI_SUB-Zen_","amp;tr":["udp%3A%2F%2Ftracker.openbittorrent.com%3A80","udp%3A%2F%2Fopen.demonii.com%3A1337","udp%3A%2F%2Ftracker.coppersurfer.tk%3A6969","udp%3A%2F%2Fexodus.desync.com%3A6969"],"infoHash":"64a546f0882f9ad58228e35d363252ee92a07072","infoHashBuffer":{"type":"Buffer","data":[100,165,70,240,136,47,154,213,130,40,227,93,54,50,82,238,146,160,112,114]},"announce":[],"urlList":[]}}